<svg xmlns="http://www.w3.org/2000/svg" viewBox="0 0 24 24" width="128" height="128" color="#FFFFFF" fill="none">
    <path d="M11.998 1.25C17.9351 1.25 22.748 6.06294 22.748 12C22.748 17.9371 17.9351 22.75 11.998 22.75C6.06099 22.75 1.24805 17.9371 1.24805 12C1.24805 6.06294 6.06099 1.25 11.998 1.25ZM11.998 2.75C6.88942 2.75 2.74805 6.89137 2.74805 12C2.74805 17.1086 6.88942 21.25 11.998 21.25C17.1066 21.25 21.248 17.1086 21.248 12C21.248 6.89137 17.1066 2.75 11.998 2.75ZM11.998 7.25C12.4122 7.25 12.748 7.58579 12.748 8V11.25H15.998C16.4122 11.25 16.748 11.5858 16.748 12C16.748 12.4142 16.4122 12.75 15.998 12.75H12.748V16C12.748 16.4142 12.4122 16.75 11.998 16.75C11.5838 16.75 11.248 16.4142 11.248 16V12.75H7.99805C7.58384 12.75 7.24805 12.4142 7.24805 12C7.24805 11.5858 7.58384 11.25 7.99805 11.25H11.248V8C11.248 7.58579 11.5838 7.25 11.998 7.25Z" fill="currentColor" />
</svg>