<svg width="10" height="11" viewBox="0 0 10 11" fill="none" xmlns="http://www.w3.org/2000/svg">
<path d="M7 0.5V2.5M3 0.5V2.5" stroke="#7848F3" stroke-linecap="round" stroke-linejoin="round"/>
<path d="M5.5 1.49997H4.5C2.61438 1.49997 1.67157 1.49997 1.08578 2.08575C0.5 2.67154 0.5 3.61435 0.5 5.49997V6.49997C0.5 8.38557 0.5 9.32842 1.08578 9.91417C1.67157 10.5 2.61438 10.5 4.5 10.5H5.5C7.3856 10.5 8.32845 10.5 8.9142 9.91417C9.5 9.32842 9.5 8.38557 9.5 6.49997V5.49997C9.5 3.61435 9.5 2.67154 8.9142 2.08575C8.32845 1.49997 7.3856 1.49997 5.5 1.49997Z" stroke="#7848F3" stroke-linecap="round" stroke-linejoin="round"/>
<path d="M0.5 4.49994H9.5" stroke="#7848F3" stroke-linecap="round" stroke-linejoin="round"/>
</svg>
