<svg width="21" height="21" viewBox="0 0 21 21" fill="none" xmlns="http://www.w3.org/2000/svg">
<path d="M1.25 14.25L5.71967 9.7803C6.05923 9.4408 6.51978 9.25 7 9.25C7.48022 9.25 7.94077 9.4408 8.2803 9.7803L12.25 13.75M12.25 13.75L13.75 15.25M12.25 13.75L14.2197 11.7803C14.5592 11.4408 15.0198 11.25 15.5 11.25C15.9802 11.25 16.4408 11.4408 16.7803 11.7803L19.25 14.25" stroke="#616367" stroke-width="1.5" stroke-linecap="round" stroke-linejoin="round"/>
<path d="M13.75 6.25C14.0261 6.25 14.25 6.02614 14.25 5.75C14.25 5.47386 14.0261 5.25 13.75 5.25M13.75 6.25C13.4739 6.25 13.25 6.02614 13.25 5.75C13.25 5.47386 13.4739 5.25 13.75 5.25M13.75 6.25V5.25" stroke="#616367" stroke-width="1.5" stroke-linecap="round" stroke-linejoin="round"/>
<path d="M1.94797 17.9972C0.75 16.5946 0.75 14.4797 0.75 10.25C0.75 6.02027 0.75 3.9054 1.94797 2.50276C2.11808 2.30358 2.30358 2.11808 2.50276 1.94797C3.9054 0.75 6.02027 0.75 10.25 0.75C14.4797 0.75 16.5946 0.75 17.9972 1.94797C18.1964 2.11808 18.3819 2.30358 18.552 2.50276C19.75 3.9054 19.75 6.02027 19.75 10.25C19.75 14.4797 19.75 16.5946 18.552 17.9972C18.3819 18.1964 18.1964 18.3819 17.9972 18.552C16.5946 19.75 14.4797 19.75 10.25 19.75C6.02027 19.75 3.9054 19.75 2.50276 18.552C2.30358 18.3819 2.11808 18.1964 1.94797 17.9972Z" stroke="#616367" stroke-width="1.5" stroke-linecap="round" stroke-linejoin="round"/>
</svg>
