<svg width="104" height="115" viewBox="0 0 104 115" fill="none" xmlns="http://www.w3.org/2000/svg">
<path d="M53.8827 0C55.8613 0.00533333 57.584 0.0320001 59.0667 0.165333C61.0347 0.341333 62.8693 0.725333 64.6507 1.648C65.36 2.016 66.032 2.43733 66.6667 2.912C68.2773 4.112 69.4187 5.59467 70.4373 7.29067C71.3973 8.88533 72.368 10.896 73.5147 13.2587L76.1387 18.6667H100C102.208 18.6667 104 20.4587 104 22.6667C104 24.8747 102.208 26.6667 100 26.6667H95.76L92.672 76.5867C92.2613 83.2427 91.936 88.5227 91.2693 92.7413C90.5813 97.0667 89.4827 100.672 87.2853 103.824C85.2747 106.704 82.688 109.141 79.6853 110.965C76.4053 112.965 72.7413 113.84 68.3787 114.261C64.128 114.667 58.8373 114.667 52.1653 114.667H51.7547C45.0773 114.667 39.7813 114.667 35.52 114.261C31.1573 113.84 27.488 112.965 24.208 110.96C21.2 109.131 18.6133 106.693 16.6027 103.803C14.4053 100.645 13.312 97.04 12.6293 92.704C11.968 88.48 11.648 83.1947 11.2427 76.528L8.23467 26.6667H4C1.792 26.6667 0 24.8747 0 22.6667C0 20.4587 1.792 18.6667 4 18.6667H28.3787L30.6133 13.7653C31.728 11.312 32.6773 9.232 33.6213 7.57867C34.624 5.824 35.76 4.27733 37.392 3.02933C38.032 2.53867 38.7147 2.096 39.4347 1.71733C41.248 0.752 43.12 0.357333 45.136 0.170666C47.0293 -2.98023e-07 49.3173 0 52.0107 0H53.8827ZM87.744 26.6667H16.2507L19.216 75.84C19.6373 82.7573 19.936 87.664 20.5333 91.4667C21.12 95.2 21.9413 97.472 23.168 99.2373C24.544 101.211 26.3147 102.88 28.3733 104.133C30.2027 105.248 32.5227 105.936 36.288 106.293C40.1173 106.661 45.0293 106.667 51.9627 106.667C58.88 106.667 63.792 106.661 67.616 106.299C71.376 105.936 73.6907 105.253 75.52 104.133C77.5787 102.885 79.3493 101.221 80.7253 99.248C81.952 97.488 82.7733 95.2213 83.3653 91.488C83.968 87.6907 84.2773 82.7947 84.704 75.888L87.744 26.6667ZM38.6667 45.3333C40.8747 45.3333 42.6667 47.1253 42.6667 49.3333V81.3333C42.6667 83.5413 40.8747 85.3333 38.6667 85.3333C36.4587 85.3333 34.6667 83.5413 34.6667 81.3333V49.3333C34.6667 47.1253 36.4587 45.3333 38.6667 45.3333ZM65.3333 45.3333C67.5413 45.3333 69.3333 47.1253 69.3333 49.3333V81.3333C69.3333 83.5413 67.5413 85.3333 65.3333 85.3333C63.1253 85.3333 61.3333 83.5413 61.3333 81.3333V49.3333C61.3333 47.1253 63.1253 45.3333 65.3333 45.3333ZM54.3947 8.00533H50.176C48.336 8.01067 46.976 8.03733 45.8613 8.13867C44.4427 8.26667 43.7227 8.496 43.1893 8.77867C42.864 8.95467 42.5547 9.152 42.2613 9.376C41.7813 9.744 41.2747 10.3093 40.5707 11.5413C39.8293 12.8427 39.0293 14.5867 37.8187 17.2373L37.168 18.6667H67.248L66.3893 16.9013C65.152 14.3413 64.3307 12.6613 63.5787 11.408C62.864 10.2187 62.3627 9.68 61.8827 9.32267C61.5947 9.10933 61.2907 8.91733 60.9707 8.74667C60.4427 8.47467 59.7333 8.256 58.352 8.13333C57.312 8.04267 56.064 8.01067 54.3947 8.00533Z" fill="#FF0000"/>
</svg>
